<svg width="180" height="180" viewBox="0 0 180 180" fill="none" xmlns="http://www.w3.org/2000/svg">
<g clip-path="url(#clip0_2767_5497)">
<rect width="180" height="180" fill="#3964F9"/>
<g clip-path="url(#clip1_2767_5497)">
<path d="M74.9226 -18.3281L61.9441 -5.34961L85.34 18.0463C90.958 23.6643 97.2451 24.9597 105.496 18.2351C113.746 11.5104 121.271 8.05397 121.271 8.05397L95.0782 -18.1394C89.4602 -23.7573 80.4363 -23.8418 74.9226 -18.3281Z" fill="#325BEB"/>
<path d="M97.0042 -40.4097L109.219 -52.6247L132.326 -29.5176C137.875 -23.969 137.026 -20.1203 130.732 -12.3197C124.438 -4.51897 121.28 2.65821 121.28 2.65821L97.6546 -20.967C92.106 -26.5155 91.8148 -35.2203 97.0042 -40.4097Z" fill="#325BEB"/>
</g>
<g clip-path="url(#clip2_2767_5497)">
<path d="M169.924 66.3877L156.945 79.3662L180.341 102.762C185.959 108.38 192.246 109.676 200.497 102.951C208.747 96.2262 216.272 92.7698 216.272 92.7698L190.079 66.5765C184.461 60.9585 175.437 60.874 169.924 66.3877Z" fill="#325BEB"/>
<path d="M192.005 44.3061L204.22 32.0911L227.327 55.1982C232.876 60.7468 232.027 64.5955 225.733 72.3961C219.439 80.1968 216.281 87.374 216.281 87.374L192.656 63.7489C187.107 58.2003 186.816 49.4955 192.005 44.3061Z" fill="#325BEB"/>
</g>
<g clip-path="url(#clip3_2767_5497)">
<path d="M-9.92997 66.5249L-22.9084 79.5034L0.487493 102.899C6.10542 108.517 12.3926 109.813 20.6432 103.088C28.8936 96.3634 36.419 92.907 36.419 92.907L10.2256 66.7137C4.6077 61.0957 -4.41627 61.0112 -9.92997 66.5249Z" fill="#325BEB"/>
<path d="M12.1516 44.4433L24.3667 32.2283L47.4739 55.3355C53.0224 60.884 52.1732 64.7328 45.8795 72.5333C39.5859 80.3341 36.4272 87.5112 36.4272 87.5112L12.8021 63.8861C7.25349 58.3375 6.96224 49.6327 12.1516 44.4433Z" fill="#325BEB"/>
</g>
<g clip-path="url(#clip4_2767_5497)">
<path d="M75.07 161.388L62.0916 174.366L85.4875 197.762C91.1054 203.38 97.3926 204.676 105.643 197.951C113.894 191.226 121.419 187.77 121.419 187.77L95.2256 161.576C89.6077 155.959 80.5837 155.874 75.07 161.388Z" fill="#325BEB"/>
<path d="M97.1516 139.306L109.367 127.091L132.474 150.198C138.022 155.747 137.173 159.596 130.879 167.396C124.586 175.197 121.427 182.374 121.427 182.374L97.8021 158.749C92.2535 153.2 91.9622 144.496 97.1516 139.306Z" fill="#325BEB"/>
</g>
</g>
<defs>
<clipPath id="clip0_2767_5497">
<rect width="180" height="180" fill="white"/>
</clipPath>
<clipPath id="clip1_2767_5497">
<rect width="72" height="72" fill="white" transform="translate(52.8528 -10.8042) rotate(-45)"/>
</clipPath>
<clipPath id="clip2_2767_5497">
<rect width="72" height="72" fill="white" transform="translate(147.854 73.9116) rotate(-45)"/>
</clipPath>
<clipPath id="clip3_2767_5497">
<rect width="72" height="72" fill="white" transform="translate(-31.9998 74.0488) rotate(-45)"/>
</clipPath>
<clipPath id="clip4_2767_5497">
<rect width="72" height="72" fill="white" transform="translate(53.0002 168.912) rotate(-45)"/>
</clipPath>
</defs>
</svg>
