<svg width="24" height="24" viewBox="0 0 24 24" fill="none" xmlns="http://www.w3.org/2000/svg">
<path fill-rule="evenodd" clip-rule="evenodd" d="M15.8623 13.5246C15.8623 12.1741 16.961 11.0754 18.3115 11.0754C19.6621 11.0754 20.7608 12.1741 20.7608 13.5246C20.7608 14.8751 19.6621 15.9739 18.3115 15.9739C16.961 15.9739 15.8623 14.8752 15.8623 13.5246ZM17.27 13.5246C17.27 14.0989 17.7372 14.5662 18.3115 14.5662C18.8858 14.5662 19.3531 14.099 19.3531 13.5246C19.3531 12.9503 18.8858 12.483 18.3115 12.483C17.7372 12.483 17.27 12.9503 17.27 13.5246Z" fill="#9B9BAC"/>
<path fill-rule="evenodd" clip-rule="evenodd" d="M23.9422 12.5692L23.9401 12.604C23.9794 12.8721 24 13.1462 24.0001 13.425C24.0001 14.5522 23.6943 15.6591 23.1157 16.6264L18.9157 23.6483C18.7885 23.8609 18.559 23.9909 18.3116 23.9909H18.3092C18.0607 23.99 17.8312 23.8582 17.7051 23.6441L17.1974 22.7821C15.6142 23.5491 13.8481 23.9562 12.045 23.966C12.0429 23.966 12.0408 23.9661 12.0388 23.9662C12.0362 23.9664 12.0336 23.9665 12.031 23.9665L12.0271 23.9663L12.0237 23.9661L11.9888 23.9664L11.9797 23.9669C11.9737 23.9669 11.9677 23.9664 11.9617 23.9663C8.76841 23.9619 5.76693 22.7165 3.50844 20.458C1.246 18.1955 0 15.1875 0 11.9879C0 8.78827 1.246 5.78015 3.50848 3.51771C5.76736 1.25888 8.7694 0.0134553 11.9632 0.00946725L11.9673 0.00941978L11.9786 0.00927734C11.9851 0.00927734 11.9915 0.00938538 11.9979 0.00949342C12.0036 0.00958795 12.0092 0.00968248 12.0148 0.00970464C12.0222 0.00952958 12.0297 0.00971599 12.0371 0.00990211C12.0398 0.00996837 12.0424 0.0100346 12.0451 0.0100845C15.2198 0.0272238 18.202 1.27094 20.4488 3.51771C22.7112 5.7802 23.9572 8.78827 23.9572 11.9879C23.9572 12.3062 23.9527 12.3962 23.9422 12.5692ZM18.3504 7.77553C19.8394 7.77553 21.1955 8.3548 22.2058 9.29955C21.7373 7.50491 20.7996 5.85929 19.4534 4.51317C17.8773 2.93711 15.8911 1.92057 13.7355 1.56202C14.6548 2.8047 15.8364 4.92371 16.4295 8.112C17.0294 7.89441 17.6763 7.77553 18.3504 7.77553ZM8.6594 12.6917C8.76432 16.4571 9.71672 18.9308 10.5234 20.3669C11.0724 21.3446 11.6255 21.9793 11.9843 22.3336C12.562 21.7227 13.6592 20.3552 14.4486 18.1132L13.5634 16.6099C12.9992 15.6518 12.701 14.5575 12.701 13.4455V13.425C12.701 13.1765 12.7173 12.9318 12.7485 12.6917H8.6594ZM8.66002 11.2841H13.1227C13.5376 10.2747 14.2364 9.41117 15.1194 8.7934C14.4535 4.71025 12.7564 2.47905 11.9834 1.64649C11.625 2.0038 11.0727 2.64251 10.5245 3.62249C9.71943 5.06148 8.76926 7.53373 8.66002 11.2841ZM10.1856 1.56777C8.0439 1.93164 6.07112 2.94585 4.50385 4.51312C2.67407 6.34285 1.59837 8.72541 1.4313 11.2841H7.25184C7.38928 6.18285 8.97313 3.15318 10.1856 1.56777ZM7.25112 12.6917H1.4313C1.59837 15.2504 2.67407 17.6329 4.50385 19.4627C6.06918 21.028 8.03897 22.0417 10.1775 22.4067C8.96311 20.8229 7.38278 17.7977 7.25112 12.6917ZM15.3548 19.6526C14.8387 20.8349 14.2618 21.7465 13.7598 22.4109C14.7071 22.2523 15.6238 21.9677 16.4806 21.5645L15.3548 19.6526ZM18.3163 21.9079L21.9076 15.9038C22.3555 15.1549 22.5923 14.2977 22.5923 13.425C22.5923 13.2077 22.5759 12.9941 22.5442 12.7856C22.5402 12.7663 22.5369 12.7467 22.5346 12.7268C22.2006 10.7189 20.4517 9.18314 18.3505 9.18314C16.0116 9.18314 14.1087 11.086 14.1087 13.425V13.4455C14.1087 14.3066 14.3395 15.1538 14.7764 15.8957L18.3163 21.9079Z" fill="#9B9BAC"/>
</svg>
